# xmcd
#
# Track frame offsets:
#	150
#	11790
#	30469
#	53288
#	70384
#	84893
#	100098
#	115284
#	130205
#	145922
#	159153
#	174904
#	192051
#	202916
#	218306
#	231014
#
# Disc length: 3264 seconds
#
# Revision: 1
# Processed by: cddbd v1.5.2PL0 Copyright (c) Steve Scherf et al.
# Submitted via: audiograbber 1.83.01
#
DISCID=bd0cbe10
DTITLE=Bill Anderson - Whispering bluegrass
DYEAR=2007
DGENRE=country
TTITLE0=Slippin' away with Vince Gill
TTITLE1=My perfect reason with Dolly Parton
TTITLE2=I've got a thing about a five string
TTITLE3=Thr cold hard facts of life
TTITLE4=Everything I want (and not a thing I need) with Jon Randall
TTITLE5=Give it away
TTITLE6=I never once stopped loving you
TTITLE7=The lord knows I'm drinking with Willie Nelson
TTITLE8=He's got the whole world in his hands with Vince Goll and Jan Howard
TTITLE9=Leaning on the everlasting arms
TTITLE10=I'll be somewhere listening
TTITLE11=In the garden
TTITLE12=Using my bible for a roadmap
TTITLE13=I love to tell the story
TTITLE14=If I could here my mother pray again
TTITLE15=Amazing grace
EXTD=
EXTT0=
EXTT1=
EXTT2=
EXTT3=
EXTT4=
EXTT5=
EXTT6=
EXTT7=
EXTT8=
EXTT9=
EXTT10=
EXTT11=
EXTT12=
EXTT13=
EXTT14=
EXTT15=
PLAYORDER=
